<!DOCTYPE svg PUBLIC "-//W3C//DTD SVG 20010904//EN" "http://www.w3.org/TR/2001/REC-SVG-20010904/DTD/svg10.dtd">
<svg version="1.0" xmlns="http://www.w3.org/2000/svg" width="512px" height="512px" viewBox="0 0 5120 5120" preserveAspectRatio="xMidYMid meet">
<g id="layer101" fill="#5c005e" stroke="none">
 <path d="M202 4988 c-9 -9 -12 -284 -12 -1175 l0 -1163 1143 0 c876 0 1146 3 1155 12 17 17 17 2309 0 2326 -17 17 -2269 17 -2286 0z"/>
 <path d="M2642 4988 c-17 -17 -17 -2309 0 -2326 17 -17 2269 -17 2286 0 17 17 17 2309 0 2326 -17 17 -2269 17 -2286 0z"/>
 <path d="M180 1327 c0 -899 3 -1176 12 -1185 15 -15 2254 -17 2278 -2 13 8 15 151 19 1165 3 1092 2 1157 -15 1176 -17 19 -41 19 -1156 19 l-1138 0 0 -1173z"/>
 <path d="M2652 2488 c-17 -17 -17 -2339 0 -2356 17 -17 2269 -17 2286 0 17 17 17 2339 0 2356 -17 17 -2269 17 -2286 0z"/>
 </g>
<g id="layer102" fill="#385d82" stroke="none">
 <path d="M207 4982 c-16 -17 -17 -113 -17 -1175 l0 -1157 98 0 c191 0 488 50 687 115 826 270 1405 953 1505 1775 17 136 10 438 -10 450 -9 6 -447 10 -1131 10 -1068 0 -1117 -1 -1132 -18z"/>
 <path d="M2642 4988 c-17 -17 -17 -2309 0 -2326 17 -17 2269 -17 2286 0 17 17 17 2309 0 2326 -17 17 -2269 17 -2286 0z"/>
 <path d="M180 1327 c0 -899 3 -1176 12 -1185 15 -15 2254 -17 2278 -2 13 8 15 151 19 1165 3 1092 2 1157 -15 1176 -17 19 -41 19 -1156 19 l-1138 0 0 -1173z"/>
 <path d="M2652 2488 c-17 -17 -17 -2339 0 -2356 17 -17 2269 -17 2286 0 17 17 17 2339 0 2356 -17 17 -2269 17 -2286 0z"/>
 </g>
<g id="layer103" fill="#8d633e" stroke="none">
 <path d="M207 4982 c-16 -17 -17 -113 -17 -1175 l0 -1157 98 0 c191 0 488 50 687 115 826 270 1405 953 1505 1775 17 136 10 438 -10 450 -9 6 -447 10 -1131 10 -1068 0 -1117 -1 -1132 -18z"/>
 <path d="M2655 4980 c-16 -18 -17 -33 -11 -152 50 -968 633 -1789 1476 -2077 104 -35 193 -57 376 -90 33 -6 137 -11 230 -11 137 0 174 3 192 16 l22 15 0 1148 c0 879 -3 1150 -12 1159 -9 9 -275 12 -1133 12 -1107 0 -1122 0 -1140 -20z"/>
 <path d="M180 1327 c0 -899 3 -1176 12 -1185 15 -15 2254 -17 2278 -2 13 8 15 151 19 1165 3 1092 2 1157 -15 1176 -17 19 -41 19 -1156 19 l-1138 0 0 -1173z"/>
 <path d="M2652 2488 c-17 -17 -17 -2339 0 -2356 17 -17 2269 -17 2286 0 17 17 17 2339 0 2356 -17 17 -2269 17 -2286 0z"/>
 </g>
<g id="layer104" fill="#899744" stroke="none">
 <path d="M207 4982 c-16 -17 -17 -113 -17 -1175 l0 -1157 98 0 c191 0 488 50 687 115 826 270 1405 953 1505 1775 17 136 10 438 -10 450 -9 6 -447 10 -1131 10 -1068 0 -1117 -1 -1132 -18z"/>
 <path d="M2655 4980 c-16 -18 -17 -33 -11 -152 50 -968 633 -1789 1476 -2077 104 -35 193 -57 376 -90 33 -6 137 -11 230 -11 137 0 174 3 192 16 l22 15 0 1148 c0 879 -3 1150 -12 1159 -9 9 -275 12 -1133 12 -1107 0 -1122 0 -1140 -20z"/>
 <path d="M180 1328 c0 -900 3 -1177 12 -1186 9 -9 275 -12 1134 -12 617 0 1129 3 1138 6 14 5 16 33 16 201 0 357 -57 615 -205 918 -175 361 -459 675 -810 895 -325 203 -761 335 -1152 347 l-133 4 0 -1173z"/>
 <path d="M2652 2488 c-17 -17 -17 -2339 0 -2356 17 -17 2269 -17 2286 0 17 17 17 2339 0 2356 -17 17 -2269 17 -2286 0z"/>
 </g>
<g id="layer105" fill="#cb00ce" stroke="none">
 <path d="M207 4982 c-16 -17 -17 -113 -17 -1175 l0 -1157 98 0 c191 0 488 50 687 115 826 270 1405 953 1505 1775 17 136 10 438 -10 450 -9 6 -447 10 -1131 10 -1068 0 -1117 -1 -1132 -18z"/>
 <path d="M2655 4980 c-16 -18 -17 -33 -11 -152 50 -968 633 -1789 1476 -2077 104 -35 193 -57 376 -90 33 -6 137 -11 230 -11 137 0 174 3 192 16 l22 15 0 1148 c0 879 -3 1150 -12 1159 -9 9 -275 12 -1133 12 -1107 0 -1122 0 -1140 -20z"/>
 <path d="M180 1328 c0 -900 3 -1177 12 -1186 9 -9 275 -12 1134 -12 617 0 1129 3 1138 6 14 5 16 33 16 201 0 357 -57 615 -205 918 -175 361 -459 675 -810 895 -326 204 -752 332 -1157 347 l-128 5 0 -1174z"/>
 <path d="M4560 2464 c-507 -78 -947 -294 -1291 -634 -183 -182 -306 -353 -420 -585 -104 -214 -166 -419 -199 -668 -14 -112 -13 -430 2 -445 17 -17 2269 -17 2286 0 9 9 12 285 12 1180 l0 1168 -147 -1 c-82 -1 -191 -7 -243 -15z"/>
 </g>
<g id="layer106" fill="#63aff5" stroke="none">
 <path d="M2655 4980 c-16 -18 -17 -33 -11 -152 50 -968 633 -1789 1476 -2077 104 -35 193 -57 376 -90 33 -6 137 -11 230 -11 137 0 174 3 192 16 l22 15 0 1148 c0 879 -3 1150 -12 1159 -9 9 -275 12 -1133 12 -1107 0 -1122 0 -1140 -20z"/>
 <path d="M560 3845 l0 -835 451 0 451 0 81 57 c162 114 297 237 413 374 72 86 76 102 45 191 -47 137 -150 234 -306 288 l-50 18 50 21 c109 48 173 136 339 469 l126 252 -283 0 -283 0 -150 -286 c-82 -157 -164 -303 -183 -326 -42 -49 -84 -68 -151 -68 l-50 0 0 340 0 340 -250 0 -250 0 0 -835z m813 -180 c109 -26 150 -74 145 -166 -5 -71 -27 -105 -86 -132 -41 -18 -67 -21 -207 -21 l-160 -1 -3 168 -2 167 127 0 c73 -1 153 -7 186 -15z"/>
 <path d="M180 1328 c0 -900 3 -1177 12 -1186 9 -9 275 -12 1134 -12 617 0 1129 3 1138 6 14 5 16 33 16 201 0 357 -57 615 -205 918 -175 361 -459 675 -810 895 -326 204 -752 332 -1157 347 l-128 5 0 -1174z"/>
 <path d="M4560 2464 c-507 -78 -947 -294 -1291 -634 -183 -182 -306 -353 -420 -585 -104 -214 -166 -419 -199 -668 -14 -112 -13 -430 2 -445 17 -17 2269 -17 2286 0 9 9 12 285 12 1180 l0 1168 -147 -1 c-82 -1 -191 -7 -243 -15z"/>
 </g>
<g id="layer107" fill="#f2b986" stroke="none">
 <path d="M3230 4054 l0 -656 118 -120 c64 -66 150 -147 190 -179 l73 -59 280 0 c221 0 295 3 352 16 243 55 366 220 367 490 0 259 -113 427 -338 502 -71 23 -94 26 -304 30 l-228 4 -2 312 -3 311 -252 3 -253 2 0 -656z m762 -324 c109 -31 159 -150 107 -256 -35 -73 -71 -88 -226 -94 l-133 -5 0 189 0 189 108 -6 c59 -4 124 -11 144 -17z"/>
 <path d="M560 3845 l0 -835 451 0 451 0 81 57 c162 114 297 237 413 374 72 86 76 102 45 191 -47 137 -150 234 -306 288 l-50 18 50 21 c109 48 173 136 339 469 l126 252 -283 0 -283 0 -150 -286 c-82 -157 -164 -303 -183 -326 -42 -49 -84 -68 -151 -68 l-50 0 0 340 0 340 -250 0 -250 0 0 -835z m813 -180 c109 -26 150 -74 145 -166 -5 -71 -27 -105 -86 -132 -41 -18 -67 -21 -207 -21 l-160 -1 -3 168 -2 167 127 0 c73 -1 153 -7 186 -15z"/>
 <path d="M180 1328 c0 -900 3 -1177 12 -1186 9 -9 275 -12 1134 -12 617 0 1129 3 1138 6 14 5 16 33 16 201 0 357 -57 615 -205 918 -175 361 -459 675 -810 895 -326 204 -752 332 -1157 347 l-128 5 0 -1174z"/>
 <path d="M4560 2464 c-507 -78 -947 -294 -1291 -634 -183 -182 -306 -353 -420 -585 -104 -214 -166 -419 -199 -668 -14 -112 -13 -430 2 -445 17 -17 2269 -17 2286 0 9 9 12 285 12 1180 l0 1168 -147 -1 c-82 -1 -191 -7 -243 -15z"/>
 </g>
<g id="layer108" fill="#e0fa67" stroke="none">
 <path d="M3230 4054 l0 -656 118 -120 c64 -66 150 -147 190 -179 l73 -59 280 0 c221 0 295 3 352 16 243 55 366 220 367 490 0 259 -113 427 -338 502 -71 23 -94 26 -304 30 l-228 4 -2 312 -3 311 -252 3 -253 2 0 -656z m762 -324 c109 -31 159 -150 107 -256 -35 -73 -71 -88 -226 -94 l-133 -5 0 189 0 189 108 -6 c59 -4 124 -11 144 -17z"/>
 <path d="M560 3845 l0 -835 451 0 451 0 81 57 c162 114 297 237 413 374 72 86 76 102 45 191 -47 137 -150 234 -306 288 l-50 18 50 21 c109 48 173 136 339 469 l126 252 -283 0 -283 0 -150 -286 c-82 -157 -164 -303 -183 -326 -42 -49 -84 -68 -151 -68 l-50 0 0 340 0 340 -250 0 -250 0 0 -835z m813 -180 c109 -26 150 -74 145 -166 -5 -71 -27 -105 -86 -132 -41 -18 -67 -21 -207 -21 l-160 -1 -3 168 -2 167 127 0 c73 -1 153 -7 186 -15z"/>
 <path d="M4560 2464 c-507 -78 -947 -294 -1291 -634 -183 -182 -306 -353 -420 -585 -104 -214 -166 -419 -199 -668 -14 -112 -13 -430 2 -445 17 -17 2269 -17 2286 0 9 9 12 285 12 1180 l0 1168 -147 -1 c-82 -1 -191 -7 -243 -15z"/>
 <path d="M570 1185 l0 -875 705 0 705 0 0 190 0 190 -440 0 -440 0 0 135 0 135 410 0 410 0 -2 178 -3 177 -407 3 -408 2 0 170 0 170 443 2 442 3 -130 130 c-71 72 -169 161 -216 198 l-87 67 -491 0 -491 0 0 -875z"/>
 </g>
<g id="layer109" fill="#fffefe" stroke="none">
 <path d="M3230 4054 l0 -656 118 -120 c64 -66 150 -147 190 -179 l73 -59 280 0 c221 0 295 3 352 16 243 55 366 220 367 490 0 259 -113 427 -338 502 -71 23 -94 26 -304 30 l-228 4 -2 312 -3 311 -252 3 -253 2 0 -656z m762 -324 c109 -31 159 -150 107 -256 -35 -73 -71 -88 -226 -94 l-133 -5 0 189 0 189 108 -6 c59 -4 124 -11 144 -17z"/>
 <path d="M560 3845 l0 -835 451 0 451 0 81 57 c162 114 297 237 413 374 72 86 76 102 45 191 -47 137 -150 234 -306 288 l-50 18 50 21 c109 48 173 136 339 469 l126 252 -283 0 -283 0 -150 -286 c-82 -157 -164 -303 -183 -326 -42 -49 -84 -68 -151 -68 l-50 0 0 340 0 340 -250 0 -250 0 0 -835z m813 -180 c109 -26 150 -74 145 -166 -5 -71 -27 -105 -86 -132 -41 -18 -67 -21 -207 -21 l-160 -1 -3 168 -2 167 127 0 c73 -1 153 -7 186 -15z"/>
 <path d="M4037 2284 c-4 -4 -7 -46 -7 -92 l0 -85 -58 62 -58 62 -55 -27 c-229 -113 -534 -356 -688 -549 l-48 -60 9 -80 c17 -156 63 -266 154 -364 166 -180 471 -201 660 -46 23 19 44 35 46 35 2 0 3 -132 3 -292 l0 -293 238 -3 237 -2 -2 867 -3 868 -211 3 c-115 1 -213 -1 -217 -4z m-145 -353 c56 -36 87 -95 101 -197 31 -210 -57 -369 -202 -369 -112 0 -173 70 -193 219 -19 141 11 276 74 332 39 35 61 43 119 44 44 0 64 -6 101 -29z"/>
 <path d="M570 1185 l0 -875 705 0 705 0 0 190 0 190 -440 0 -440 0 0 135 0 135 410 0 410 0 -2 178 -3 177 -407 3 -408 2 0 170 0 170 443 2 442 3 -130 130 c-71 72 -169 161 -216 198 l-87 67 -491 0 -491 0 0 -875z"/>
 </g>

</svg>